<svg width="800" height="800" viewBox="0 0 800 800" fill="none" xmlns="http://www.w3.org/2000/svg">
<path d="M651.945 503.352C633.129 505.439 603.709 509.261 585.959 514.339C590.464 513.03 592.361 512.472 585.189 514.539C555.433 523.189 574.481 517.675 584.687 514.709C526.114 531.863 460.248 573.308 422.922 628.241V217.188C422.922 199.527 408.604 185.209 390.942 185.209C373.281 185.209 358.964 199.527 358.964 217.188V713.42C358.964 727.619 368.223 739.638 381.026 743.814C379.316 751.786 377.721 759.783 376.244 767.802C373.234 784.131 387.426 798.306 403.753 795.27C441.112 788.327 501.37 774.656 535.894 753.88C593.762 719.053 637.447 651.106 657.094 587.117C657.25 586.609 657.367 586.23 657.454 585.955C659.286 579.597 658.73 581.489 657.464 585.844C662.561 568.027 666.156 538.294 668.069 519.324C669.073 509.369 661.889 502.248 651.945 503.352Z" fill="#58AD84" fill-opacity="0.94"/>
<path d="M322.288 784.555C332.447 787.673 293.033 776.075 322.789 784.725C329.963 786.792 328.064 786.234 323.559 784.925C341.377 790.022 371.109 793.617 390.08 795.53C400.034 796.533 407.155 789.348 406.052 779.405C403.964 760.589 400.142 731.169 395.064 713.419C396.373 717.923 396.931 719.82 394.864 712.648C386.214 682.892 391.728 701.941 394.694 712.147C376.75 650.873 332.234 581.598 273.492 545.384C239.195 524.241 178.972 510.592 141.602 503.705C125.272 500.695 111.097 514.887 114.133 531.214C121.077 568.573 134.747 628.831 155.523 663.355C190.352 721.222 258.298 764.908 322.288 784.555Z" fill="#4F9477"/>
<path d="M417.353 15.5328C417.353 15.5328 417.995 16.0297 419.122 16.9906C420.225 17.9515 421.972 19.3781 423.953 21.239L427.355 24.3515L431.172 28.0922C434.271 31.0965 437.283 34.1889 440.205 37.3656C453.113 51.2609 468.908 71.1094 482.83 94.9297C496.834 118.748 508.956 146.539 516.842 176.312C520.866 191.381 523.789 206.722 525.591 222.214C527.463 237.845 528.119 253.725 527.814 269.605C527.459 285.484 526.191 301.364 523.869 316.995C521.605 332.627 518.245 348.011 514.078 362.897C509.956 377.508 504.917 391.845 498.991 405.822C496.145 412.54 493.098 419.17 489.852 425.703C488.278 428.913 486.586 432.069 484.941 435.167C483.344 438.264 481.608 441.305 479.906 444.281C466.339 468.1 451.244 487.95 438.98 501.845L434.544 506.773L430.394 511.119C427.886 513.817 425.486 516.112 423.574 517.973C419.724 521.695 417.353 523.68 417.353 523.68C401.827 536.678 379.525 536.253 364.531 523.68C364.531 523.68 362.161 521.695 358.311 517.973C356.399 516.112 353.997 513.817 351.491 511.119L347.341 506.773L342.905 501.845C330.641 487.95 315.545 468.102 301.978 444.281C300.275 441.303 298.541 438.264 296.944 435.167C295.299 432.07 293.606 428.914 292.033 425.703C288.788 419.169 285.74 412.539 282.894 405.822C276.968 391.845 271.928 377.508 267.806 362.897C263.639 348.009 260.28 332.627 258.016 316.995C255.695 301.364 254.425 285.484 254.07 269.605C253.767 253.725 254.424 237.845 256.294 222.214C258.095 206.722 261.019 191.381 265.042 176.312C272.927 146.537 285.05 118.748 299.055 94.9297C312.977 71.1109 328.772 51.2609 341.68 37.3656C344.874 33.8922 347.93 30.7906 350.713 28.0922L354.53 24.3515L357.931 21.239C359.914 19.3781 361.659 17.9515 362.763 16.9906C363.888 16.0297 364.531 15.5328 364.531 15.5328C380.419 3.25622 402.172 3.80778 417.353 15.5328Z" fill="#EC5656"/>
<path d="M230.619 64.5626C230.619 64.5626 231.394 64.7564 232.784 65.1782C234.155 65.6079 236.287 66.2048 238.797 67.0954L243.073 68.5532L247.964 70.4064C251.519 71.7314 255.472 73.3111 259.689 75.1657C276.678 82.5345 298.501 94.0657 320.037 109.819C341.648 125.541 362.964 145.486 381.08 168.8C390.267 180.569 398.55 193.017 405.858 206.038C413.272 219.139 419.651 232.924 425.145 247.072C430.59 261.241 435.19 275.756 438.726 290.453C442.315 305.128 444.801 320.002 446.361 334.744C447.862 349.25 448.414 363.839 448.014 378.417C447.824 385.443 447.416 392.462 446.79 399.463C446.501 402.899 446.084 406.331 445.689 409.694C445.339 413.039 444.839 416.386 444.347 419.664C440.461 445.875 433.717 469.161 427.428 486.106L425.117 492.149L422.859 497.567C421.522 500.906 420.136 503.847 419.044 506.22C416.837 510.974 415.365 513.63 415.365 513.63C405.603 531.259 385.08 539.161 366.517 533.727C366.517 533.727 363.603 532.875 358.69 531.05C356.245 530.133 353.19 529.019 349.89 527.588C348.084 526.834 346.279 526.08 344.473 525.325L338.58 522.658C322.186 515.044 301.009 503.247 279.803 487.358C277.147 485.375 274.436 483.349 271.833 481.219C269.184 479.108 266.472 476.963 263.85 474.725C258.479 470.19 253.25 465.491 248.17 460.633C237.867 450.77 227.895 440.003 218.611 428.439C209.345 416.869 200.644 404.552 192.867 391.599C185.037 378.667 178.089 365.117 171.989 351.219C165.936 337.3 160.769 323.017 156.815 308.492C152.845 294.099 149.97 279.426 148.217 264.599C144.684 235.286 145.79 206.116 150.083 179.738C154.297 153.391 161.687 129.839 168.573 112.65C170.122 108.726 171.783 104.848 173.555 101.019L175.725 96.2595L177.739 92.2142C178.895 89.8157 179.992 87.8907 180.662 86.6204C181.355 85.3423 181.767 84.6595 181.767 84.6595C192.119 67.5689 212.198 59.9626 230.619 64.5626Z" fill="#FFACAC"/>
<path d="M600.116 84.6594C600.116 84.6594 600.53 85.3422 601.22 86.6204C601.891 87.8891 602.988 89.8141 604.144 92.2141L606.158 96.2594L608.328 101.019C610.099 104.848 611.76 108.726 613.309 112.65C620.195 129.841 627.586 153.392 631.8 179.738C636.092 206.116 637.198 235.286 633.666 264.599C631.912 279.426 629.037 294.099 625.067 308.492C621.114 323.019 615.949 337.302 609.894 351.219C603.792 365.117 596.845 378.667 589.016 391.599C581.239 404.552 572.539 416.867 563.272 428.439C553.988 440.003 544.016 450.77 533.713 460.633C528.633 465.491 523.404 470.191 518.033 474.725C515.411 476.963 512.699 479.108 510.05 481.219C507.447 483.348 504.738 485.375 502.08 487.358C480.874 503.247 459.697 515.045 443.303 522.658L437.409 525.325L431.992 527.588C428.692 529.019 425.638 530.133 423.192 531.05C418.28 532.875 415.366 533.727 415.366 533.727C396.024 539.381 375.881 530.553 366.517 513.63C366.517 513.63 365.047 510.973 362.839 506.22C361.747 503.848 360.361 500.906 359.024 497.567L356.766 492.148L354.455 486.106C348.166 469.161 341.422 445.877 337.536 419.664C337.044 416.384 336.544 413.039 336.194 409.694C335.799 406.33 335.38 402.897 335.092 399.463C334.477 392.575 334.061 385.547 333.869 378.417C333.489 364.159 333.981 349.492 335.522 334.744C337.081 320.002 339.566 305.128 343.156 290.453C346.692 275.756 351.292 261.239 356.738 247.072C362.231 232.924 368.611 219.139 376.025 206.038C383.333 193.018 391.616 180.57 400.803 168.8C418.92 145.488 440.234 125.541 461.845 109.819C483.38 94.0657 505.205 82.5329 522.194 75.1657C526.056 73.468 529.966 71.8809 533.919 70.4063L538.809 68.5532L543.086 67.0954C545.595 66.2047 547.73 65.6079 549.099 65.1782C550.489 64.7563 551.264 64.5626 551.264 64.5626C570.647 59.7032 590.266 68.4297 600.116 84.6594Z" fill="#FF8787"/>
</svg>
